<mxfile host="Electron" agent="Mozilla/5.0 (Windows NT 10.0; Win64; x64) AppleWebKit/537.36 (KHTML, like Gecko) draw.io/24.7.17 Chrome/128.0.6613.36 Electron/32.0.1 Safari/537.36" version="24.7.17">
  <diagram name="第 1 页" id="gQKwrbpdDcLALgzKd0WU">
    <mxGraphModel dx="3248" dy="229" grid="1" gridSize="10" guides="1" tooltips="1" connect="1" arrows="1" fold="1" page="1" pageScale="1" pageWidth="827" pageHeight="1169" math="0" shadow="0">
      <root>
        <mxCell id="0" />
        <mxCell id="1" parent="0" />
        <mxCell id="V7nIqocJNu07dlvDADYR-151" value="" style="rounded=0;whiteSpace=wrap;html=1;fillStyle=dashed;strokeWidth=2;" parent="1" vertex="1">
          <mxGeometry x="-439" y="1240" width="1399" height="1880" as="geometry" />
        </mxCell>
        <mxCell id="V7nIqocJNu07dlvDADYR-138" value="" style="rounded=0;whiteSpace=wrap;html=1;fillStyle=dashed;dashed=1;dashPattern=8 8;" parent="1" vertex="1">
          <mxGeometry x="-359" y="1320" width="1239" height="160" as="geometry" />
        </mxCell>
        <mxCell id="V7nIqocJNu07dlvDADYR-137" value="" style="rounded=0;whiteSpace=wrap;html=1;fillStyle=dashed;dashed=1;dashPattern=8 8;" parent="1" vertex="1">
          <mxGeometry x="-360" y="2000" width="1239" height="1080" as="geometry" />
        </mxCell>
        <mxCell id="V7nIqocJNu07dlvDADYR-122" value="" style="rounded=0;whiteSpace=wrap;html=1;fillStyle=dashed;dashed=1;dashPattern=8 8;" parent="1" vertex="1">
          <mxGeometry x="-360" y="1520" width="1240" height="350" as="geometry" />
        </mxCell>
        <mxCell id="V7nIqocJNu07dlvDADYR-117" style="edgeStyle=orthogonalEdgeStyle;rounded=0;orthogonalLoop=1;jettySize=auto;html=1;entryX=0;entryY=0.5;entryDx=0;entryDy=0;dashed=1;strokeColor=#001DBC;strokeWidth=3;align=center;verticalAlign=middle;fontFamily=Helvetica;fontSize=11;fontColor=default;labelBackgroundColor=default;endArrow=classic;fillColor=#0050ef;" parent="1" source="V7nIqocJNu07dlvDADYR-59" target="V7nIqocJNu07dlvDADYR-66" edge="1">
          <mxGeometry relative="1" as="geometry" />
        </mxCell>
        <mxCell id="V7nIqocJNu07dlvDADYR-59" value="获取初始迁移清单" style="rounded=0;whiteSpace=wrap;html=1;fontSize=15;" parent="1" vertex="1">
          <mxGeometry x="-320.05" y="1360" width="160" height="80" as="geometry" />
        </mxCell>
        <mxCell id="V7nIqocJNu07dlvDADYR-80" style="edgeStyle=orthogonalEdgeStyle;rounded=0;orthogonalLoop=1;jettySize=auto;html=1;entryX=0.5;entryY=0;entryDx=0;entryDy=0;fontSize=15;" parent="1" source="V7nIqocJNu07dlvDADYR-60" target="V7nIqocJNu07dlvDADYR-63" edge="1">
          <mxGeometry relative="1" as="geometry" />
        </mxCell>
        <mxCell id="V7nIqocJNu07dlvDADYR-60" value="参数检查" style="rounded=0;whiteSpace=wrap;html=1;fontSize=15;" parent="1" vertex="1">
          <mxGeometry x="-39.05000000000001" y="1560" width="160" height="80" as="geometry" />
        </mxCell>
        <mxCell id="V7nIqocJNu07dlvDADYR-136" style="edgeStyle=orthogonalEdgeStyle;rounded=0;orthogonalLoop=1;jettySize=auto;html=1;entryX=0.5;entryY=0;entryDx=0;entryDy=0;dashed=1;strokeColor=#C73500;strokeWidth=3;align=center;verticalAlign=middle;fontFamily=Helvetica;fontSize=11;fontColor=default;labelBackgroundColor=default;endArrow=classic;fillColor=#fa6800;" parent="1" source="V7nIqocJNu07dlvDADYR-61" target="V7nIqocJNu07dlvDADYR-64" edge="1">
          <mxGeometry relative="1" as="geometry" />
        </mxCell>
        <mxCell id="V7nIqocJNu07dlvDADYR-61" value="任务提交成功文件&lt;div style=&quot;font-size: 15px;&quot;&gt;（repo_addr、job id、result_root）&lt;/div&gt;" style="rounded=0;whiteSpace=wrap;html=1;fontSize=15;" parent="1" vertex="1">
          <mxGeometry x="239.45000000000005" y="1790" width="239" height="60" as="geometry" />
        </mxCell>
        <mxCell id="V7nIqocJNu07dlvDADYR-62" value="批量提交日志" style="rounded=0;whiteSpace=wrap;html=1;fontSize=15;" parent="1" vertex="1">
          <mxGeometry x="238.95000000000005" y="1580" width="239" height="60" as="geometry" />
        </mxCell>
        <mxCell id="V7nIqocJNu07dlvDADYR-118" style="edgeStyle=orthogonalEdgeStyle;rounded=0;orthogonalLoop=1;jettySize=auto;html=1;exitX=1;exitY=0.5;exitDx=0;exitDy=0;entryX=0;entryY=0.5;entryDx=0;entryDy=0;dashed=1;strokeColor=#001DBC;strokeWidth=3;align=center;verticalAlign=middle;fontFamily=Helvetica;fontSize=11;fontColor=default;labelBackgroundColor=default;endArrow=classic;fillColor=#0050ef;" parent="1" source="V7nIqocJNu07dlvDADYR-63" target="V7nIqocJNu07dlvDADYR-62" edge="1">
          <mxGeometry relative="1" as="geometry" />
        </mxCell>
        <mxCell id="V7nIqocJNu07dlvDADYR-119" style="edgeStyle=orthogonalEdgeStyle;rounded=0;orthogonalLoop=1;jettySize=auto;html=1;entryX=0;entryY=0.5;entryDx=0;entryDy=0;dashed=1;strokeColor=#001DBC;strokeWidth=3;align=center;verticalAlign=middle;fontFamily=Helvetica;fontSize=11;fontColor=default;labelBackgroundColor=default;endArrow=classic;fillColor=#0050ef;" parent="1" source="V7nIqocJNu07dlvDADYR-63" target="V7nIqocJNu07dlvDADYR-61" edge="1">
          <mxGeometry relative="1" as="geometry" />
        </mxCell>
        <mxCell id="V7nIqocJNu07dlvDADYR-133" style="edgeStyle=orthogonalEdgeStyle;rounded=0;orthogonalLoop=1;jettySize=auto;html=1;entryX=0;entryY=0.5;entryDx=0;entryDy=0;dashed=1;strokeColor=#001DBC;strokeWidth=3;align=center;verticalAlign=middle;fontFamily=Helvetica;fontSize=11;fontColor=default;labelBackgroundColor=default;endArrow=classic;fillColor=#0050ef;" parent="1" source="V7nIqocJNu07dlvDADYR-63" target="V7nIqocJNu07dlvDADYR-132" edge="1">
          <mxGeometry relative="1" as="geometry" />
        </mxCell>
        <mxCell id="V7nIqocJNu07dlvDADYR-63" value="提交任务" style="rounded=0;whiteSpace=wrap;html=1;fontSize=15;" parent="1" vertex="1">
          <mxGeometry x="-39.05000000000001" y="1680" width="160" height="80" as="geometry" />
        </mxCell>
        <mxCell id="V7nIqocJNu07dlvDADYR-81" style="edgeStyle=orthogonalEdgeStyle;rounded=0;orthogonalLoop=1;jettySize=auto;html=1;entryX=0.5;entryY=0;entryDx=0;entryDy=0;fontSize=15;" parent="1" source="V7nIqocJNu07dlvDADYR-64" target="V7nIqocJNu07dlvDADYR-68" edge="1">
          <mxGeometry relative="1" as="geometry" />
        </mxCell>
        <mxCell id="V7nIqocJNu07dlvDADYR-64" value="参数检查、初始化" style="rounded=0;whiteSpace=wrap;html=1;fontSize=15;" parent="1" vertex="1">
          <mxGeometry x="118.95000000000005" y="2039.9699999999998" width="160" height="80" as="geometry" />
        </mxCell>
        <mxCell id="V7nIqocJNu07dlvDADYR-94" style="edgeStyle=orthogonalEdgeStyle;rounded=0;orthogonalLoop=1;jettySize=auto;html=1;entryX=0;entryY=0.5;entryDx=0;entryDy=0;exitX=0.5;exitY=1;exitDx=0;exitDy=0;fontSize=15;" parent="1" source="V7nIqocJNu07dlvDADYR-65" target="V7nIqocJNu07dlvDADYR-68" edge="1">
          <mxGeometry relative="1" as="geometry">
            <Array as="points">
              <mxPoint x="-201.04999999999995" y="2639.97" />
              <mxPoint x="-321.04999999999995" y="2639.97" />
              <mxPoint x="-321.04999999999995" y="2199.97" />
            </Array>
          </mxGeometry>
        </mxCell>
        <mxCell id="V7nIqocJNu07dlvDADYR-65" value="记录输出到构建失败文件中" style="rounded=0;whiteSpace=wrap;html=1;fontSize=15;" parent="1" vertex="1">
          <mxGeometry x="-281.04999999999995" y="2519.97" width="160" height="80" as="geometry" />
        </mxCell>
        <mxCell id="V7nIqocJNu07dlvDADYR-126" style="edgeStyle=orthogonalEdgeStyle;rounded=0;orthogonalLoop=1;jettySize=auto;html=1;dashed=1;strokeColor=#C73500;strokeWidth=3;align=center;verticalAlign=middle;fontFamily=Helvetica;fontSize=11;fontColor=default;labelBackgroundColor=default;endArrow=classic;fillColor=#fa6800;entryX=0.5;entryY=0;entryDx=0;entryDy=0;" parent="1" source="V7nIqocJNu07dlvDADYR-66" target="V7nIqocJNu07dlvDADYR-158" edge="1">
          <mxGeometry relative="1" as="geometry">
            <Array as="points">
              <mxPoint x="40" y="1500" />
              <mxPoint x="-241" y="1500" />
            </Array>
          </mxGeometry>
        </mxCell>
        <mxCell id="V7nIqocJNu07dlvDADYR-66" value="迁移清单" style="rounded=0;whiteSpace=wrap;html=1;fontSize=15;" parent="1" vertex="1">
          <mxGeometry x="-39.05000000000001" y="1380" width="159" height="40" as="geometry" />
        </mxCell>
        <mxCell id="V7nIqocJNu07dlvDADYR-85" style="edgeStyle=orthogonalEdgeStyle;rounded=0;orthogonalLoop=1;jettySize=auto;html=1;entryX=0.5;entryY=0;entryDx=0;entryDy=0;fontSize=15;" parent="1" source="V7nIqocJNu07dlvDADYR-67" target="V7nIqocJNu07dlvDADYR-69" edge="1">
          <mxGeometry relative="1" as="geometry" />
        </mxCell>
        <mxCell id="V7nIqocJNu07dlvDADYR-109" value="是" style="edgeLabel;html=1;align=center;verticalAlign=middle;resizable=0;points=[];fontSize=15;" parent="V7nIqocJNu07dlvDADYR-85" vertex="1" connectable="0">
          <mxGeometry x="-0.1289" y="-2" relative="1" as="geometry">
            <mxPoint as="offset" />
          </mxGeometry>
        </mxCell>
        <mxCell id="V7nIqocJNu07dlvDADYR-86" style="edgeStyle=orthogonalEdgeStyle;rounded=0;orthogonalLoop=1;jettySize=auto;html=1;entryX=0;entryY=0.5;entryDx=0;entryDy=0;exitX=0;exitY=0.5;exitDx=0;exitDy=0;fontSize=15;" parent="1" source="V7nIqocJNu07dlvDADYR-67" target="V7nIqocJNu07dlvDADYR-68" edge="1">
          <mxGeometry relative="1" as="geometry">
            <Array as="points">
              <mxPoint x="-1.0499999999999545" y="2319.97" />
              <mxPoint x="-1.0499999999999545" y="2199.97" />
            </Array>
          </mxGeometry>
        </mxCell>
        <mxCell id="V7nIqocJNu07dlvDADYR-102" value="否" style="edgeLabel;html=1;align=center;verticalAlign=middle;resizable=0;points=[];fontSize=15;" parent="V7nIqocJNu07dlvDADYR-86" vertex="1" connectable="0">
          <mxGeometry x="-0.0088" y="-4" relative="1" as="geometry">
            <mxPoint as="offset" />
          </mxGeometry>
        </mxCell>
        <mxCell id="V7nIqocJNu07dlvDADYR-67" value="属于迁移清单" style="rhombus;whiteSpace=wrap;html=1;fontSize=15;" parent="1" vertex="1">
          <mxGeometry x="118.95000000000005" y="2279.97" width="160" height="80" as="geometry" />
        </mxCell>
        <mxCell id="V7nIqocJNu07dlvDADYR-83" style="edgeStyle=orthogonalEdgeStyle;rounded=0;orthogonalLoop=1;jettySize=auto;html=1;entryX=0;entryY=0.5;entryDx=0;entryDy=0;fontSize=15;" parent="1" source="V7nIqocJNu07dlvDADYR-68" target="V7nIqocJNu07dlvDADYR-78" edge="1">
          <mxGeometry relative="1" as="geometry" />
        </mxCell>
        <mxCell id="V7nIqocJNu07dlvDADYR-105" value="遍历完成" style="edgeLabel;html=1;align=center;verticalAlign=middle;resizable=0;points=[];fontSize=15;" parent="V7nIqocJNu07dlvDADYR-83" vertex="1" connectable="0">
          <mxGeometry x="-0.0509" y="-3" relative="1" as="geometry">
            <mxPoint as="offset" />
          </mxGeometry>
        </mxCell>
        <mxCell id="V7nIqocJNu07dlvDADYR-84" style="edgeStyle=orthogonalEdgeStyle;rounded=0;orthogonalLoop=1;jettySize=auto;html=1;entryX=0.5;entryY=0;entryDx=0;entryDy=0;fontSize=15;" parent="1" source="V7nIqocJNu07dlvDADYR-68" target="V7nIqocJNu07dlvDADYR-67" edge="1">
          <mxGeometry relative="1" as="geometry" />
        </mxCell>
        <mxCell id="V7nIqocJNu07dlvDADYR-116" value="继续遍历" style="edgeLabel;html=1;align=center;verticalAlign=middle;resizable=0;points=[];fontSize=15;" parent="V7nIqocJNu07dlvDADYR-84" vertex="1" connectable="0">
          <mxGeometry x="-0.2868" y="-2" relative="1" as="geometry">
            <mxPoint as="offset" />
          </mxGeometry>
        </mxCell>
        <mxCell id="V7nIqocJNu07dlvDADYR-68" value="遍历任务信息文件" style="rhombus;whiteSpace=wrap;html=1;fontSize=15;" parent="1" vertex="1">
          <mxGeometry x="118.95000000000005" y="2159.97" width="160" height="80" as="geometry" />
        </mxCell>
        <mxCell id="V7nIqocJNu07dlvDADYR-87" style="edgeStyle=orthogonalEdgeStyle;rounded=0;orthogonalLoop=1;jettySize=auto;html=1;entryX=1;entryY=0.5;entryDx=0;entryDy=0;fontSize=15;" parent="1" source="V7nIqocJNu07dlvDADYR-69" target="V7nIqocJNu07dlvDADYR-71" edge="1">
          <mxGeometry relative="1" as="geometry" />
        </mxCell>
        <mxCell id="V7nIqocJNu07dlvDADYR-110" value="否" style="edgeLabel;html=1;align=center;verticalAlign=middle;resizable=0;points=[];fontSize=15;" parent="V7nIqocJNu07dlvDADYR-87" vertex="1" connectable="0">
          <mxGeometry x="-0.1921" y="2" relative="1" as="geometry">
            <mxPoint as="offset" />
          </mxGeometry>
        </mxCell>
        <mxCell id="V7nIqocJNu07dlvDADYR-90" style="edgeStyle=orthogonalEdgeStyle;rounded=0;orthogonalLoop=1;jettySize=auto;html=1;entryX=0;entryY=0.5;entryDx=0;entryDy=0;fontSize=15;" parent="1" source="V7nIqocJNu07dlvDADYR-69" target="V7nIqocJNu07dlvDADYR-76" edge="1">
          <mxGeometry relative="1" as="geometry" />
        </mxCell>
        <mxCell id="V7nIqocJNu07dlvDADYR-111" value="是" style="edgeLabel;html=1;align=center;verticalAlign=middle;resizable=0;points=[];fontSize=15;" parent="V7nIqocJNu07dlvDADYR-90" vertex="1" connectable="0">
          <mxGeometry x="-0.2816" y="-1" relative="1" as="geometry">
            <mxPoint as="offset" />
          </mxGeometry>
        </mxCell>
        <mxCell id="V7nIqocJNu07dlvDADYR-69" value="result_root/output文件存在构建成功标志信息" style="rhombus;whiteSpace=wrap;html=1;fontSize=15;" parent="1" vertex="1">
          <mxGeometry x="118.95000000000005" y="2399.97" width="160" height="80" as="geometry" />
        </mxCell>
        <mxCell id="V7nIqocJNu07dlvDADYR-92" style="edgeStyle=orthogonalEdgeStyle;rounded=0;orthogonalLoop=1;jettySize=auto;html=1;entryX=0.5;entryY=0;entryDx=0;entryDy=0;fontSize=15;" parent="1" source="V7nIqocJNu07dlvDADYR-70" target="V7nIqocJNu07dlvDADYR-74" edge="1">
          <mxGeometry relative="1" as="geometry" />
        </mxCell>
        <mxCell id="V7nIqocJNu07dlvDADYR-114" value="是" style="edgeLabel;html=1;align=center;verticalAlign=middle;resizable=0;points=[];fontSize=15;" parent="V7nIqocJNu07dlvDADYR-92" vertex="1" connectable="0">
          <mxGeometry x="-0.2511" y="-1" relative="1" as="geometry">
            <mxPoint as="offset" />
          </mxGeometry>
        </mxCell>
        <mxCell id="V7nIqocJNu07dlvDADYR-93" style="edgeStyle=orthogonalEdgeStyle;rounded=0;orthogonalLoop=1;jettySize=auto;html=1;entryX=0.5;entryY=0;entryDx=0;entryDy=0;fontSize=15;" parent="1" source="V7nIqocJNu07dlvDADYR-70" target="V7nIqocJNu07dlvDADYR-75" edge="1">
          <mxGeometry relative="1" as="geometry" />
        </mxCell>
        <mxCell id="V7nIqocJNu07dlvDADYR-115" value="否" style="edgeLabel;html=1;align=center;verticalAlign=middle;resizable=0;points=[];fontSize=15;" parent="V7nIqocJNu07dlvDADYR-93" vertex="1" connectable="0">
          <mxGeometry x="-0.1754" y="1" relative="1" as="geometry">
            <mxPoint as="offset" />
          </mxGeometry>
        </mxCell>
        <mxCell id="V7nIqocJNu07dlvDADYR-70" value="result_root/output文件存在安装成功标志信息" style="rhombus;whiteSpace=wrap;html=1;fontSize=15;" parent="1" vertex="1">
          <mxGeometry x="318.95000000000005" y="2519.97" width="160" height="80" as="geometry" />
        </mxCell>
        <mxCell id="V7nIqocJNu07dlvDADYR-88" style="edgeStyle=orthogonalEdgeStyle;rounded=0;orthogonalLoop=1;jettySize=auto;html=1;fontSize=15;" parent="1" source="V7nIqocJNu07dlvDADYR-71" target="V7nIqocJNu07dlvDADYR-65" edge="1">
          <mxGeometry relative="1" as="geometry" />
        </mxCell>
        <mxCell id="V7nIqocJNu07dlvDADYR-112" value="否" style="edgeLabel;html=1;align=center;verticalAlign=middle;resizable=0;points=[];fontSize=15;" parent="V7nIqocJNu07dlvDADYR-88" vertex="1" connectable="0">
          <mxGeometry x="-0.3953" y="2" relative="1" as="geometry">
            <mxPoint as="offset" />
          </mxGeometry>
        </mxCell>
        <mxCell id="V7nIqocJNu07dlvDADYR-89" style="edgeStyle=orthogonalEdgeStyle;rounded=0;orthogonalLoop=1;jettySize=auto;html=1;entryX=0.5;entryY=0;entryDx=0;entryDy=0;fontSize=15;" parent="1" source="V7nIqocJNu07dlvDADYR-71" target="V7nIqocJNu07dlvDADYR-73" edge="1">
          <mxGeometry relative="1" as="geometry" />
        </mxCell>
        <mxCell id="V7nIqocJNu07dlvDADYR-113" value="是" style="edgeLabel;html=1;align=center;verticalAlign=middle;resizable=0;points=[];fontSize=15;" parent="V7nIqocJNu07dlvDADYR-89" vertex="1" connectable="0">
          <mxGeometry x="-0.3395" y="-1" relative="1" as="geometry">
            <mxPoint as="offset" />
          </mxGeometry>
        </mxCell>
        <mxCell id="V7nIqocJNu07dlvDADYR-71" value="result_root/output文件存在已存在标志信息（不需要迁移）" style="rhombus;whiteSpace=wrap;html=1;fontSize=15;" parent="1" vertex="1">
          <mxGeometry x="-81.04999999999995" y="2399.97" width="160" height="80" as="geometry" />
        </mxCell>
        <mxCell id="V7nIqocJNu07dlvDADYR-95" style="edgeStyle=orthogonalEdgeStyle;rounded=0;orthogonalLoop=1;jettySize=auto;html=1;entryX=0;entryY=0.5;entryDx=0;entryDy=0;fontSize=15;" parent="1" source="V7nIqocJNu07dlvDADYR-73" target="V7nIqocJNu07dlvDADYR-68" edge="1">
          <mxGeometry relative="1" as="geometry">
            <Array as="points">
              <mxPoint x="-1.0499999999999545" y="2639.97" />
              <mxPoint x="-321.04999999999995" y="2639.97" />
              <mxPoint x="-321.04999999999995" y="2199.97" />
            </Array>
          </mxGeometry>
        </mxCell>
        <mxCell id="V7nIqocJNu07dlvDADYR-73" value="记录输出到目标系统已存在文件中" style="rounded=0;whiteSpace=wrap;html=1;fontSize=15;" parent="1" vertex="1">
          <mxGeometry x="-81.04999999999995" y="2519.97" width="160" height="80" as="geometry" />
        </mxCell>
        <mxCell id="V7nIqocJNu07dlvDADYR-100" style="edgeStyle=orthogonalEdgeStyle;rounded=0;orthogonalLoop=1;jettySize=auto;html=1;entryX=0;entryY=0.5;entryDx=0;entryDy=0;fontSize=15;" parent="1" source="V7nIqocJNu07dlvDADYR-74" target="V7nIqocJNu07dlvDADYR-68" edge="1">
          <mxGeometry relative="1" as="geometry">
            <Array as="points">
              <mxPoint x="399.95000000000005" y="2759.97" />
              <mxPoint x="-321.04999999999995" y="2759.97" />
              <mxPoint x="-321.04999999999995" y="2199.97" />
            </Array>
          </mxGeometry>
        </mxCell>
        <mxCell id="V7nIqocJNu07dlvDADYR-74" value="记录输出到安装成功文件中" style="rounded=0;whiteSpace=wrap;html=1;fontSize=15;" parent="1" vertex="1">
          <mxGeometry x="319.95000000000005" y="2639.97" width="160" height="80" as="geometry" />
        </mxCell>
        <mxCell id="V7nIqocJNu07dlvDADYR-101" style="edgeStyle=orthogonalEdgeStyle;rounded=0;orthogonalLoop=1;jettySize=auto;html=1;entryX=0;entryY=0.5;entryDx=0;entryDy=0;exitX=0.5;exitY=1;exitDx=0;exitDy=0;fontSize=15;" parent="1" source="V7nIqocJNu07dlvDADYR-75" target="V7nIqocJNu07dlvDADYR-68" edge="1">
          <mxGeometry relative="1" as="geometry">
            <Array as="points">
              <mxPoint x="599.95" y="2759.97" />
              <mxPoint x="-321.04999999999995" y="2759.97" />
              <mxPoint x="-321.04999999999995" y="2199.97" />
            </Array>
          </mxGeometry>
        </mxCell>
        <mxCell id="V7nIqocJNu07dlvDADYR-75" value="记录输出到安装失败文件中" style="rounded=0;whiteSpace=wrap;html=1;fontSize=15;" parent="1" vertex="1">
          <mxGeometry x="519.95" y="2639.97" width="160" height="80" as="geometry" />
        </mxCell>
        <mxCell id="V7nIqocJNu07dlvDADYR-91" style="edgeStyle=orthogonalEdgeStyle;rounded=0;orthogonalLoop=1;jettySize=auto;html=1;entryX=0.5;entryY=0;entryDx=0;entryDy=0;fontSize=15;" parent="1" source="V7nIqocJNu07dlvDADYR-76" target="V7nIqocJNu07dlvDADYR-70" edge="1">
          <mxGeometry relative="1" as="geometry" />
        </mxCell>
        <mxCell id="V7nIqocJNu07dlvDADYR-76" value="记录输出到构建成功文件中" style="rounded=0;whiteSpace=wrap;html=1;fontSize=15;" parent="1" vertex="1">
          <mxGeometry x="318.95000000000005" y="2399.97" width="160" height="80" as="geometry" />
        </mxCell>
        <mxCell id="V7nIqocJNu07dlvDADYR-98" style="edgeStyle=orthogonalEdgeStyle;rounded=0;orthogonalLoop=1;jettySize=auto;html=1;entryX=1;entryY=0.5;entryDx=0;entryDy=0;exitX=1;exitY=0.5;exitDx=0;exitDy=0;fontSize=15;" parent="1" source="V7nIqocJNu07dlvDADYR-79" target="V7nIqocJNu07dlvDADYR-78" edge="1">
          <mxGeometry relative="1" as="geometry">
            <Array as="points">
              <mxPoint x="718.95" y="2319.97" />
              <mxPoint x="718.95" y="2199.97" />
            </Array>
          </mxGeometry>
        </mxCell>
        <mxCell id="V7nIqocJNu07dlvDADYR-108" value="是" style="edgeLabel;html=1;align=center;verticalAlign=middle;resizable=0;points=[];fontSize=15;" parent="V7nIqocJNu07dlvDADYR-98" vertex="1" connectable="0">
          <mxGeometry x="-0.7816" y="-1" relative="1" as="geometry">
            <mxPoint as="offset" />
          </mxGeometry>
        </mxCell>
        <mxCell id="V7nIqocJNu07dlvDADYR-99" style="edgeStyle=orthogonalEdgeStyle;rounded=0;orthogonalLoop=1;jettySize=auto;html=1;entryX=1;entryY=0.5;entryDx=0;entryDy=0;fontSize=15;" parent="1" source="V7nIqocJNu07dlvDADYR-77" target="V7nIqocJNu07dlvDADYR-78" edge="1">
          <mxGeometry relative="1" as="geometry">
            <Array as="points">
              <mxPoint x="718.95" y="2439.97" />
              <mxPoint x="718.95" y="2199.97" />
            </Array>
          </mxGeometry>
        </mxCell>
        <mxCell id="V7nIqocJNu07dlvDADYR-77" value="下一轮迭代迁移清单" style="rounded=0;whiteSpace=wrap;html=1;fontSize=15;" parent="1" vertex="1">
          <mxGeometry x="518.95" y="2399.97" width="160" height="80" as="geometry" />
        </mxCell>
        <mxCell id="V7nIqocJNu07dlvDADYR-96" style="edgeStyle=orthogonalEdgeStyle;rounded=0;orthogonalLoop=1;jettySize=auto;html=1;entryX=0.5;entryY=0;entryDx=0;entryDy=0;fontSize=15;" parent="1" source="V7nIqocJNu07dlvDADYR-78" target="V7nIqocJNu07dlvDADYR-79" edge="1">
          <mxGeometry relative="1" as="geometry" />
        </mxCell>
        <mxCell id="V7nIqocJNu07dlvDADYR-106" value="继续遍历" style="edgeLabel;html=1;align=center;verticalAlign=middle;resizable=0;points=[];fontSize=15;" parent="V7nIqocJNu07dlvDADYR-96" vertex="1" connectable="0">
          <mxGeometry x="-0.0977" relative="1" as="geometry">
            <mxPoint as="offset" />
          </mxGeometry>
        </mxCell>
        <mxCell id="V7nIqocJNu07dlvDADYR-78" value="遍历迁移文件" style="rhombus;whiteSpace=wrap;html=1;fontSize=15;" parent="1" vertex="1">
          <mxGeometry x="519.95" y="2159.97" width="160" height="80" as="geometry" />
        </mxCell>
        <mxCell id="V7nIqocJNu07dlvDADYR-97" style="edgeStyle=orthogonalEdgeStyle;rounded=0;orthogonalLoop=1;jettySize=auto;html=1;entryX=0.5;entryY=0;entryDx=0;entryDy=0;fontSize=15;" parent="1" source="V7nIqocJNu07dlvDADYR-79" target="V7nIqocJNu07dlvDADYR-77" edge="1">
          <mxGeometry relative="1" as="geometry" />
        </mxCell>
        <mxCell id="V7nIqocJNu07dlvDADYR-107" value="否" style="edgeLabel;html=1;align=center;verticalAlign=middle;resizable=0;points=[];fontSize=15;" parent="V7nIqocJNu07dlvDADYR-97" vertex="1" connectable="0">
          <mxGeometry x="-0.1289" y="-2" relative="1" as="geometry">
            <mxPoint as="offset" />
          </mxGeometry>
        </mxCell>
        <mxCell id="V7nIqocJNu07dlvDADYR-79" value="在构建成功文件或已存在文件中" style="rhombus;whiteSpace=wrap;html=1;fontSize=15;" parent="1" vertex="1">
          <mxGeometry x="518.95" y="2279.97" width="160" height="80" as="geometry" />
        </mxCell>
        <mxCell id="V7nIqocJNu07dlvDADYR-120" value="获取迁移初始清单脚本" style="text;html=1;align=center;verticalAlign=middle;whiteSpace=wrap;rounded=0;fontSize=16;fontColor=#f20202;" parent="1" vertex="1">
          <mxGeometry x="699.95" y="1280" width="170" height="30" as="geometry" />
        </mxCell>
        <mxCell id="V7nIqocJNu07dlvDADYR-121" value="1 - 输出" style="text;html=1;align=center;verticalAlign=middle;resizable=0;points=[];autosize=1;strokeColor=none;fillColor=none;fontSize=16;fontStyle=1" parent="1" vertex="1">
          <mxGeometry x="-150.05" y="1370" width="80" height="30" as="geometry" />
        </mxCell>
        <mxCell id="V7nIqocJNu07dlvDADYR-123" value="批量迁移提交脚本" style="text;html=1;align=center;verticalAlign=middle;whiteSpace=wrap;rounded=0;fontSize=16;fontColor=#f20202;" parent="1" vertex="1">
          <mxGeometry x="710" y="1490" width="170" height="30" as="geometry" />
        </mxCell>
        <mxCell id="V7nIqocJNu07dlvDADYR-124" value="2 - 初始输入" style="text;html=1;align=center;verticalAlign=middle;resizable=0;points=[];autosize=1;strokeColor=none;fillColor=none;fontSize=16;fontStyle=1" parent="1" vertex="1">
          <mxGeometry x="49" y="1440" width="110" height="30" as="geometry" />
        </mxCell>
        <mxCell id="V7nIqocJNu07dlvDADYR-128" value="4 - 输出" style="text;html=1;align=center;verticalAlign=middle;resizable=0;points=[];autosize=1;strokeColor=none;fillColor=none;fontSize=16;fontStyle=1" parent="1" vertex="1">
          <mxGeometry x="109.94999999999999" y="1690" width="80" height="30" as="geometry" />
        </mxCell>
        <mxCell id="V7nIqocJNu07dlvDADYR-129" value="&lt;h1 style=&quot;margin-top: 0px;&quot;&gt;批量提交日志&lt;/h1&gt;&lt;p&gt;保存批量迁移脚本运行日志&lt;/p&gt;" style="text;html=1;whiteSpace=wrap;overflow=hidden;rounded=0;" parent="1" vertex="1">
          <mxGeometry x="519.95" y="1540" width="180" height="80" as="geometry" />
        </mxCell>
        <mxCell id="V7nIqocJNu07dlvDADYR-131" value="&lt;h1 style=&quot;margin-top: 0px;&quot;&gt;任务提交失败文件&lt;/h1&gt;&lt;p style=&quot;line-height: 40%;&quot;&gt;文件名称：submit-failc-log&lt;/p&gt;&lt;p style=&quot;line-height: 40%;&quot;&gt;文件内容：&lt;/p&gt;&lt;p style=&quot;line-height: 40%;&quot;&gt;&lt;span style=&quot;white-space: pre;&quot;&gt;&#x9;&lt;/span&gt;repo_addr 源码包名称&lt;br&gt;&lt;/p&gt;" style="text;html=1;whiteSpace=wrap;overflow=hidden;rounded=0;" parent="1" vertex="1">
          <mxGeometry x="519.95" y="1640" width="220" height="110" as="geometry" />
        </mxCell>
        <mxCell id="V7nIqocJNu07dlvDADYR-156" style="edgeStyle=orthogonalEdgeStyle;rounded=0;orthogonalLoop=1;jettySize=auto;html=1;entryX=0;entryY=0.5;entryDx=0;entryDy=0;dashed=1;strokeColor=#C73500;strokeWidth=3;align=center;verticalAlign=middle;fontFamily=Helvetica;fontSize=11;fontColor=default;labelBackgroundColor=default;endArrow=classic;fillColor=#fa6800;" parent="1" source="V7nIqocJNu07dlvDADYR-132" target="V7nIqocJNu07dlvDADYR-155" edge="1">
          <mxGeometry relative="1" as="geometry">
            <Array as="points">
              <mxPoint x="359" y="1780" />
              <mxPoint x="-400" y="1780" />
              <mxPoint x="-400" y="1930" />
            </Array>
          </mxGeometry>
        </mxCell>
        <mxCell id="V7nIqocJNu07dlvDADYR-132" value="任务提交失败文件&lt;div style=&quot;font-size: 15px;&quot;&gt;（repo_addr、源码包名称）&lt;/div&gt;" style="rounded=0;whiteSpace=wrap;html=1;fontSize=15;" parent="1" vertex="1">
          <mxGeometry x="239.45000000000005" y="1690" width="239" height="60" as="geometry" />
        </mxCell>
        <mxCell id="V7nIqocJNu07dlvDADYR-135" value="&lt;h1 style=&quot;margin-top: 0px;&quot;&gt;任务提交成功文件&lt;/h1&gt;&lt;p style=&quot;line-height: 40%;&quot;&gt;文件名称：submit-succ-log&lt;/p&gt;&lt;p style=&quot;line-height: 40%;&quot;&gt;文件内容：&lt;/p&gt;&lt;p style=&quot;line-height: 40%;&quot;&gt;&lt;span style=&quot;white-space: pre;&quot;&gt;&#x9;&lt;/span&gt;repo_addr&amp;nbsp; 任务id 任务结果路径&lt;br&gt;&lt;/p&gt;" style="text;html=1;whiteSpace=wrap;overflow=hidden;rounded=0;" parent="1" vertex="1">
          <mxGeometry x="519.95" y="1760" width="220" height="110" as="geometry" />
        </mxCell>
        <mxCell id="V7nIqocJNu07dlvDADYR-139" value="批量迁移结果统计分析脚本" style="text;html=1;align=center;verticalAlign=middle;whiteSpace=wrap;rounded=0;fontSize=16;fontColor=#f20202;" parent="1" vertex="1">
          <mxGeometry x="670" y="1960" width="210" height="30" as="geometry" />
        </mxCell>
        <mxCell id="V7nIqocJNu07dlvDADYR-140" value="5 - 输入" style="text;html=1;align=center;verticalAlign=middle;resizable=0;points=[];autosize=1;strokeColor=none;fillColor=none;fontSize=16;fontStyle=1" parent="1" vertex="1">
          <mxGeometry x="229.45000000000005" y="1910" width="80" height="30" as="geometry" />
        </mxCell>
        <mxCell id="V7nIqocJNu07dlvDADYR-148" style="edgeStyle=orthogonalEdgeStyle;rounded=0;orthogonalLoop=1;jettySize=auto;html=1;entryX=0;entryY=0.5;entryDx=0;entryDy=0;dashed=1;strokeColor=#C73500;strokeWidth=3;align=center;verticalAlign=middle;fontFamily=Helvetica;fontSize=11;fontColor=default;labelBackgroundColor=default;endArrow=classic;fillColor=#fa6800;exitX=0;exitY=0.5;exitDx=0;exitDy=0;" parent="1" source="V7nIqocJNu07dlvDADYR-150" target="V7nIqocJNu07dlvDADYR-155" edge="1">
          <mxGeometry relative="1" as="geometry">
            <Array as="points">
              <mxPoint x="-400" y="3015" />
              <mxPoint x="-400" y="1930" />
            </Array>
          </mxGeometry>
        </mxCell>
        <mxCell id="V7nIqocJNu07dlvDADYR-143" value="&lt;h1 style=&quot;margin-top: 0px;&quot;&gt;构建失败文件&lt;/h1&gt;&lt;p style=&quot;line-height: 40%;&quot;&gt;文件名称：rpm_fail_list&lt;/p&gt;&lt;p style=&quot;line-height: 40%;&quot;&gt;文件内容：&lt;/p&gt;&lt;p style=&quot;line-height: 40%;&quot;&gt;&lt;span style=&quot;white-space: pre;&quot;&gt;&#x9;&lt;/span&gt;repo_addr&lt;br&gt;&lt;/p&gt;" style="text;html=1;whiteSpace=wrap;overflow=hidden;rounded=0;" parent="1" vertex="1">
          <mxGeometry x="-320.99999999999994" y="2800" width="220" height="110" as="geometry" />
        </mxCell>
        <mxCell id="V7nIqocJNu07dlvDADYR-144" value="&lt;h1 style=&quot;margin-top: 0px;&quot;&gt;目标系统已存在文件&lt;/h1&gt;&lt;p style=&quot;line-height: 40%;&quot;&gt;文件名称：rpm_installed_list&lt;/p&gt;&lt;p style=&quot;line-height: 40%;&quot;&gt;文件内容：&lt;/p&gt;&lt;p style=&quot;line-height: 40%;&quot;&gt;&lt;span style=&quot;white-space: pre;&quot;&gt;&#x9;&lt;/span&gt;repo_addr&lt;br&gt;&lt;/p&gt;" style="text;html=1;whiteSpace=wrap;overflow=hidden;rounded=0;" parent="1" vertex="1">
          <mxGeometry x="-80.99999999999994" y="2800" width="220" height="110" as="geometry" />
        </mxCell>
        <mxCell id="V7nIqocJNu07dlvDADYR-145" value="&lt;h1 style=&quot;margin-top: 0px;&quot;&gt;构建成功文件&lt;/h1&gt;&lt;p style=&quot;line-height: 40%;&quot;&gt;文件名称：rpm_succ_list&lt;/p&gt;&lt;p style=&quot;line-height: 40%;&quot;&gt;文件内容：&lt;/p&gt;&lt;p style=&quot;line-height: 40%;&quot;&gt;&lt;span style=&quot;white-space: pre;&quot;&gt;&#x9;&lt;/span&gt;repo_addr&lt;br&gt;&lt;/p&gt;" style="text;html=1;whiteSpace=wrap;overflow=hidden;rounded=0;" parent="1" vertex="1">
          <mxGeometry x="158.50000000000006" y="2800" width="220" height="110" as="geometry" />
        </mxCell>
        <mxCell id="V7nIqocJNu07dlvDADYR-146" value="&lt;h1 style=&quot;margin-top: 0px;&quot;&gt;安装成功文件&lt;/h1&gt;&lt;p style=&quot;line-height: 40%;&quot;&gt;文件名称：rpm_install_succ_list&lt;/p&gt;&lt;p style=&quot;line-height: 40%;&quot;&gt;文件内容：&lt;/p&gt;&lt;p style=&quot;line-height: 40%;&quot;&gt;&lt;span style=&quot;white-space: pre;&quot;&gt;&#x9;&lt;/span&gt;repo_addr&lt;br&gt;&lt;/p&gt;" style="text;html=1;whiteSpace=wrap;overflow=hidden;rounded=0;" parent="1" vertex="1">
          <mxGeometry x="399" y="2800" width="220" height="110" as="geometry" />
        </mxCell>
        <mxCell id="V7nIqocJNu07dlvDADYR-147" value="&lt;h1 style=&quot;margin-top: 0px;&quot;&gt;安装失败文件&lt;/h1&gt;&lt;p style=&quot;line-height: 40%;&quot;&gt;文件名称：rpm_install_fail_list&lt;/p&gt;&lt;p style=&quot;line-height: 40%;&quot;&gt;文件内容：&lt;/p&gt;&lt;p style=&quot;line-height: 40%;&quot;&gt;&lt;span style=&quot;white-space: pre;&quot;&gt;&#x9;&lt;/span&gt;repo_addr&lt;br&gt;&lt;/p&gt;" style="text;html=1;whiteSpace=wrap;overflow=hidden;rounded=0;" parent="1" vertex="1">
          <mxGeometry x="640" y="2800" width="220" height="110" as="geometry" />
        </mxCell>
        <mxCell id="V7nIqocJNu07dlvDADYR-149" value="7 - 迭代输出" style="text;html=1;align=center;verticalAlign=middle;resizable=0;points=[];autosize=1;strokeColor=none;fillColor=none;fontSize=16;fontStyle=1" parent="1" vertex="1">
          <mxGeometry x="-359" y="1720" width="110" height="30" as="geometry" />
        </mxCell>
        <mxCell id="V7nIqocJNu07dlvDADYR-153" style="edgeStyle=orthogonalEdgeStyle;rounded=0;orthogonalLoop=1;jettySize=auto;html=1;dashed=1;strokeColor=#C73500;strokeWidth=3;align=center;verticalAlign=middle;fontFamily=Helvetica;fontSize=11;fontColor=default;labelBackgroundColor=default;endArrow=classic;fillColor=#fa6800;exitX=0.5;exitY=1;exitDx=0;exitDy=0;" parent="1" source="V7nIqocJNu07dlvDADYR-155" edge="1">
          <mxGeometry relative="1" as="geometry">
            <mxPoint x="120" y="2080" as="targetPoint" />
            <Array as="points">
              <mxPoint x="-245" y="2080" />
            </Array>
          </mxGeometry>
        </mxCell>
        <mxCell id="V7nIqocJNu07dlvDADYR-150" value="&lt;h1 style=&quot;margin-top: 0px;&quot;&gt;下一轮迭代清单&lt;/h1&gt;&lt;p style=&quot;line-height: 40%;&quot;&gt;文件名称：rpm_next_iterate_list&lt;/p&gt;&lt;p style=&quot;line-height: 40%;&quot;&gt;文件内容：&lt;/p&gt;&lt;p style=&quot;line-height: 40%;&quot;&gt;&lt;span style=&quot;white-space: pre;&quot;&gt;&#x9;&lt;/span&gt;repo_addr&lt;br&gt;&lt;/p&gt;" style="text;html=1;whiteSpace=wrap;overflow=hidden;rounded=0;" parent="1" vertex="1">
          <mxGeometry x="-321.04999999999995" y="2960" width="220" height="110" as="geometry" />
        </mxCell>
        <mxCell id="V7nIqocJNu07dlvDADYR-152" value="批量迁移构建代码逻辑" style="text;html=1;align=center;verticalAlign=middle;whiteSpace=wrap;rounded=0;fontSize=26;fontColor=#0d0d0d;fontStyle=1" parent="1" vertex="1">
          <mxGeometry x="-60" y="1250" width="420" height="30" as="geometry" />
        </mxCell>
        <mxCell id="V7nIqocJNu07dlvDADYR-154" value="输入" style="text;html=1;align=center;verticalAlign=middle;resizable=0;points=[];autosize=1;strokeColor=none;fillColor=none;fontSize=16;fontStyle=1" parent="1" vertex="1">
          <mxGeometry x="-11" y="2039.9699999999998" width="60" height="30" as="geometry" />
        </mxCell>
        <mxCell id="V7nIqocJNu07dlvDADYR-157" style="edgeStyle=orthogonalEdgeStyle;rounded=0;orthogonalLoop=1;jettySize=auto;html=1;dashed=1;strokeColor=#C73500;strokeWidth=3;align=center;verticalAlign=middle;fontFamily=Helvetica;fontSize=11;fontColor=default;labelBackgroundColor=default;endArrow=classic;fillColor=#fa6800;" parent="1" source="V7nIqocJNu07dlvDADYR-158" target="V7nIqocJNu07dlvDADYR-60" edge="1">
          <mxGeometry relative="1" as="geometry">
            <Array as="points">
              <mxPoint x="-240" y="1600" />
            </Array>
          </mxGeometry>
        </mxCell>
        <mxCell id="V7nIqocJNu07dlvDADYR-155" value="合并为迭代&lt;div&gt;批量迁移清单&lt;/div&gt;" style="rounded=0;whiteSpace=wrap;html=1;fontSize=15;" parent="1" vertex="1">
          <mxGeometry x="-321.05" y="1890" width="160" height="80" as="geometry" />
        </mxCell>
        <mxCell id="V7nIqocJNu07dlvDADYR-159" value="" style="edgeStyle=orthogonalEdgeStyle;rounded=0;orthogonalLoop=1;jettySize=auto;html=1;dashed=1;strokeColor=#001DBC;strokeWidth=3;align=center;verticalAlign=middle;fontFamily=Helvetica;fontSize=11;fontColor=default;labelBackgroundColor=default;endArrow=classic;fillColor=#0050ef;" parent="1" source="V7nIqocJNu07dlvDADYR-155" target="V7nIqocJNu07dlvDADYR-158" edge="1">
          <mxGeometry relative="1" as="geometry">
            <mxPoint x="-240" y="1890" as="sourcePoint" />
            <mxPoint x="-39" y="1600" as="targetPoint" />
            <Array as="points" />
          </mxGeometry>
        </mxCell>
        <mxCell id="V7nIqocJNu07dlvDADYR-158" value="&lt;div&gt;批量迁移清单&lt;/div&gt;" style="rounded=0;whiteSpace=wrap;html=1;fontSize=15;" parent="1" vertex="1">
          <mxGeometry x="-321.05" y="1560" width="160" height="80" as="geometry" />
        </mxCell>
        <mxCell id="V7nIqocJNu07dlvDADYR-160" value="3 - 输入" style="text;html=1;align=center;verticalAlign=middle;resizable=0;points=[];autosize=1;strokeColor=none;fillColor=none;fontSize=16;fontStyle=1" parent="1" vertex="1">
          <mxGeometry x="-145" y="1565" width="80" height="30" as="geometry" />
        </mxCell>
        <mxCell id="V7nIqocJNu07dlvDADYR-161" value="6 - 迭代合并" style="text;html=1;align=center;verticalAlign=middle;resizable=0;points=[];autosize=1;strokeColor=none;fillColor=none;fontSize=16;fontStyle=1" parent="1" vertex="1">
          <mxGeometry x="-400" y="1890" width="110" height="30" as="geometry" />
        </mxCell>
        <mxCell id="V7nIqocJNu07dlvDADYR-196" value="&lt;h1 style=&quot;margin-top: 0px;&quot;&gt;初始迁移清单文件&lt;/h1&gt;&lt;p style=&quot;line-height: 40%;&quot;&gt;文件名称：rpm_src_list_源系统名称_源系统版本&lt;/p&gt;&lt;p style=&quot;line-height: 40%;&quot;&gt;文件内容：&lt;/p&gt;&lt;p style=&quot;line-height: 40%;&quot;&gt;&lt;span style=&quot;white-space: pre;&quot;&gt;&#x9;&lt;/span&gt;repo_addr&lt;br&gt;&lt;/p&gt;" style="text;html=1;whiteSpace=wrap;overflow=hidden;rounded=0;" parent="1" vertex="1">
          <mxGeometry x="200" y="1340" width="280" height="110" as="geometry" />
        </mxCell>
      </root>
    </mxGraphModel>
  </diagram>
</mxfile>
